<svg xmlns="http://www.w3.org/2000/svg" viewBox="0 0 480 480" font-family="Inter, system-ui, sans-serif">
<rect x="28" y="34" width="424" height="412" rx="22" fill="#16161F" opacity=".06" transform="translate(0 6)"/>
<rect x="28" y="34" width="424" height="412" rx="22" fill="#FFFFFF" stroke="#E2E1DA"/>
<text x="52" y="68" font-size="11" font-weight="600" fill="#8A899A" letter-spacing="1.2">MATRIKS KREATIF · TES 9 HOOK</text>
<rect x="366" y="54" width="62" height="22" rx="11" fill="#16161F"/><text x="397" y="69" font-size="11" font-weight="700" fill="#F8BB3D" text-anchor="middle">Minggu 3</text>
<rect x="52" y="88" width="120" height="100" rx="12" fill="#FAFAF7" stroke="#E2E1DA" stroke-width="1"/>
<rect x="60" y="96" width="104" height="46" rx="8" fill="#EFEEE9"/>
<circle cx="112.0" cy="117" r="12" fill="#16161F" opacity=".14"/><rect x="74" y="132" width="76" height="5" rx="2.5" fill="#16161F" opacity=".12"/>
<text x="62" y="158" font-size="10.5" font-weight="600" fill="#8A899A">Hook: Harga</text>
<text x="62" y="177" font-size="15" font-weight="800" fill="#16161F">CTR 1,4%</text>
<rect x="182" y="88" width="120" height="100" rx="12" fill="#FAFAF7" stroke="#E2E1DA" stroke-width="1"/>
<rect x="190" y="96" width="104" height="46" rx="8" fill="#FDE6B0"/>
<rect x="202" y="106" width="32" height="26" rx="6" fill="#16161F" opacity=".14"/><rect x="242" y="108" width="36" height="6" rx="3" fill="#16161F" opacity=".14"/><rect x="242" y="120" width="26" height="6" rx="3" fill="#16161F" opacity=".1"/>
<text x="192" y="158" font-size="10.5" font-weight="600" fill="#8A899A">Hook: Testimoni</text>
<text x="192" y="177" font-size="15" font-weight="800" fill="#16161F">CTR 2,1%</text>
<rect x="312" y="88" width="120" height="100" rx="12" fill="#FAFAF7" stroke="#E2E1DA" stroke-width="1"/>
<rect x="320" y="96" width="104" height="46" rx="8" fill="#E3F6EA"/>
<path d="M334 134 L356 108 L376 134 Z" fill="#16161F" opacity=".14"/><circle cx="394" cy="114" r="7" fill="#16161F" opacity=".12"/>
<text x="322" y="158" font-size="10.5" font-weight="600" fill="#8A899A">Hook: Before/After</text>
<text x="322" y="177" font-size="15" font-weight="800" fill="#16161F">CTR 1,8%</text>
<rect x="52" y="198" width="120" height="100" rx="12" fill="#16161F" stroke="#F8BB3D" stroke-width="2"/>
<rect x="60" y="206" width="104" height="46" rx="8" fill="#2C2C40"/>
<circle cx="82" cy="232" r="11" fill="#F8BB3D"/><rect x="100" y="220" width="34" height="24" rx="5" fill="#F4F3EF" opacity=".9"/><path d="M113 226 l9 6 l-9 6z" fill="#16161F"/>
<rect x="120" y="212" width="40" height="15" rx="7.5" fill="#F8BB3D"/><text x="140" y="222.8" font-size="8" font-weight="800" fill="#16161F" text-anchor="middle" letter-spacing=".4">WINNER</text>
<text x="62" y="268" font-size="10.5" font-weight="600" fill="#B7B6C2">Hook: Unboxing</text>
<text x="62" y="287" font-size="15" font-weight="800" fill="#F8BB3D">CTR 4,9%</text>
<rect x="182" y="198" width="120" height="100" rx="12" fill="#FAFAF7" stroke="#E2E1DA" stroke-width="1"/>
<rect x="190" y="206" width="104" height="46" rx="8" fill="#E6E5DF"/>
<circle cx="242.0" cy="227" r="12" fill="#16161F" opacity=".14"/><rect x="204" y="242" width="76" height="5" rx="2.5" fill="#16161F" opacity=".12"/>
<text x="192" y="268" font-size="10.5" font-weight="600" fill="#8A899A">Hook: POV</text>
<text x="192" y="287" font-size="15" font-weight="800" fill="#16161F">CTR 2,6%</text>
<rect x="312" y="198" width="120" height="100" rx="12" fill="#FAFAF7" stroke="#E2E1DA" stroke-width="1"/>
<rect x="320" y="206" width="104" height="46" rx="8" fill="#FCE8E3"/>
<rect x="332" y="216" width="32" height="26" rx="6" fill="#16161F" opacity=".14"/><rect x="372" y="218" width="36" height="6" rx="3" fill="#16161F" opacity=".14"/><rect x="372" y="230" width="26" height="6" rx="3" fill="#16161F" opacity=".1"/>
<text x="322" y="268" font-size="10.5" font-weight="600" fill="#8A899A">Hook: Promo</text>
<text x="322" y="287" font-size="15" font-weight="800" fill="#16161F">CTR 1,2%</text>
<rect x="52" y="308" width="120" height="100" rx="12" fill="#FAFAF7" stroke="#E2E1DA" stroke-width="1"/>
<rect x="60" y="316" width="104" height="46" rx="8" fill="#E4E9F7"/>
<path d="M74 354 L96 328 L116 354 Z" fill="#16161F" opacity=".14"/><circle cx="134" cy="334" r="7" fill="#16161F" opacity=".12"/>
<text x="62" y="378" font-size="10.5" font-weight="600" fill="#8A899A">Hook: Tutorial</text>
<text x="62" y="397" font-size="15" font-weight="800" fill="#16161F">CTR 3,1%</text>
<rect x="182" y="308" width="120" height="100" rx="12" fill="#FAFAF7" stroke="#E2E1DA" stroke-width="1"/>
<rect x="190" y="316" width="104" height="46" rx="8" fill="#FDF1D6"/>
<circle cx="242.0" cy="337" r="12" fill="#16161F" opacity=".14"/><rect x="204" y="352" width="76" height="5" rx="2.5" fill="#16161F" opacity=".12"/>
<text x="192" y="378" font-size="10.5" font-weight="600" fill="#8A899A">Hook: Bundling</text>
<text x="192" y="397" font-size="15" font-weight="800" fill="#16161F">CTR 2,4%</text>
<rect x="312" y="308" width="120" height="100" rx="12" fill="#FAFAF7" stroke="#E2E1DA" stroke-width="1"/>
<rect x="320" y="316" width="104" height="46" rx="8" fill="#EFEEE9"/>
<rect x="332" y="326" width="32" height="26" rx="6" fill="#16161F" opacity=".14"/><rect x="372" y="328" width="36" height="6" rx="3" fill="#16161F" opacity=".14"/><rect x="372" y="340" width="26" height="6" rx="3" fill="#16161F" opacity=".1"/>
<text x="322" y="378" font-size="10.5" font-weight="600" fill="#8A899A">Hook: FAQ</text>
<text x="322" y="397" font-size="15" font-weight="800" fill="#16161F">CTR 0,9%</text>
<text x="52" y="428" font-size="11" fill="#8A899A">Pemenang di-scale, 3 terbawah dimatikan tiap Senin.</text>
</svg>